<svg t="1660579909869" class="icon" viewBox="0 0 1024 1024" version="1.1" xmlns="http://www.w3.org/2000/svg"
  p-id="8661">
  <path
    d="M422.24 339.84l0.8 0.8L608 512 423.36 683.2a45.92 45.92 0 0 0-3.04 64 45.76 45.76 0 0 0 64 3.2l0.8-0.8 220.48-203.2a46.08 46.08 0 0 0 0.96-66.4v-0.8L485.6 273.6a45.76 45.76 0 0 0-64 66.24zM512 32a479.04 479.04 0 0 1 339.36 140.48 481.12 481.12 0 0 1 102.88 152.64 480 480 0 0 1-102.72 526.24 481.12 481.12 0 0 1-152.64 102.88 480 480 0 0 1-526.24-102.72 481.12 481.12 0 0 1-102.88-152.64 480 480 0 0 1 102.72-526.24 481.12 481.12 0 0 1 152.64-102.88A475.68 475.68 0 0 1 512 32z m0 883.2a401.92 401.92 0 1 0-156.96-32 402.24 402.24 0 0 0 156.96 32z"
    p-id="8662"></path>
</svg>